<svg width="317" height="148" viewBox="0 0 317 148" fill="none" xmlns="http://www.w3.org/2000/svg">
<path d="M10.9773 56.9393V71.8712H2.64205V36.9621H10.7045V50.4962H10.9943C11.5852 48.8825 12.5511 47.6212 13.892 46.7121C15.2443 45.803 16.8977 45.3484 18.8523 45.3484C20.6932 45.3484 22.2955 45.7575 23.6591 46.5757C25.0227 47.3825 26.0795 48.5246 26.8295 50.0018C27.5909 51.4791 27.9659 53.2064 27.9545 55.1837V71.8712H19.6193V56.82C19.6307 55.3655 19.267 54.2291 18.5284 53.4109C17.7898 52.5927 16.75 52.1837 15.4091 52.1837C14.5341 52.1837 13.7614 52.3768 13.0909 52.7632C12.4318 53.1382 11.9148 53.678 11.5398 54.3825C11.1761 55.0871 10.9886 55.9393 10.9773 56.9393ZM40.5384 72.3143C38.8679 72.3143 37.3849 72.0359 36.0895 71.4791C34.8054 70.9109 33.7884 70.0587 33.0384 68.9223C32.2997 67.7746 31.9304 66.3371 31.9304 64.6098C31.9304 63.1552 32.1861 61.928 32.6974 60.928C33.2088 59.928 33.9134 59.1155 34.8111 58.4905C35.7088 57.8655 36.7429 57.3939 37.9134 57.0757C39.0838 56.7462 40.3338 56.5246 41.6634 56.4109C43.152 56.2746 44.3509 56.1325 45.2599 55.9848C46.169 55.8257 46.8281 55.6041 47.2372 55.32C47.6577 55.0246 47.8679 54.6098 47.8679 54.0757V53.9905C47.8679 53.1155 47.5668 52.4393 46.9645 51.9621C46.3622 51.4848 45.5497 51.2462 44.527 51.2462C43.4247 51.2462 42.5384 51.4848 41.8679 51.9621C41.1974 52.4393 40.7713 53.0984 40.5895 53.9393L32.902 53.6666C33.1293 52.0757 33.7145 50.6552 34.6577 49.4052C35.6122 48.1439 36.919 47.1552 38.5781 46.4393C40.2486 45.7121 42.2543 45.3484 44.5952 45.3484C46.2656 45.3484 47.8054 45.5473 49.2145 45.945C50.6236 46.3314 51.8509 46.8996 52.8963 47.6496C53.9418 48.3882 54.7486 49.2973 55.3168 50.3768C55.8963 51.4564 56.1861 52.6893 56.1861 54.0757V71.8712H48.3452V68.2234H48.1406C47.6747 69.1098 47.0781 69.8598 46.3509 70.4734C45.6349 71.0871 44.7884 71.5473 43.8111 71.8541C42.8452 72.1609 41.7543 72.3143 40.5384 72.3143ZM43.1122 66.8598C44.0099 66.8598 44.8168 66.678 45.5327 66.3143C46.2599 65.9507 46.8395 65.4507 47.2713 64.8143C47.7031 64.1666 47.919 63.4166 47.919 62.5643V60.0757C47.6804 60.2007 47.3906 60.3143 47.0497 60.4166C46.7202 60.5189 46.3565 60.6155 45.9588 60.7064C45.5611 60.7973 45.152 60.8768 44.7315 60.945C44.3111 61.0132 43.9077 61.0757 43.5213 61.1325C42.7372 61.2575 42.0668 61.4507 41.5099 61.7121C40.9645 61.9734 40.544 62.3143 40.2486 62.7348C39.9645 63.1439 39.8224 63.6325 39.8224 64.2007C39.8224 65.0643 40.1293 65.7234 40.7429 66.178C41.3679 66.6325 42.1577 66.8598 43.1122 66.8598ZM61.2827 71.8712V36.9621H69.6179V50.1723H69.7884C70.1293 49.3768 70.6122 48.6098 71.2372 47.8712C71.8736 47.1325 72.6804 46.5302 73.6577 46.0643C74.6463 45.5871 75.8281 45.3484 77.2031 45.3484C79.0213 45.3484 80.7202 45.8257 82.2997 46.7802C83.8906 47.7348 85.1747 49.2064 86.152 51.195C87.1293 53.1837 87.6179 55.7177 87.6179 58.7973C87.6179 61.7632 87.1463 64.2462 86.2031 66.2462C85.2713 68.2462 84.0099 69.7462 82.419 70.7462C80.8395 71.7462 79.0838 72.2462 77.152 72.2462C75.8338 72.2462 74.6918 72.0302 73.7259 71.5984C72.7599 71.1666 71.9474 70.5984 71.2884 69.8939C70.6406 69.1893 70.1406 68.4337 69.7884 67.6268H69.5327V71.8712H61.2827ZM69.4474 58.7802C69.4474 60.1893 69.6349 61.4166 70.0099 62.4621C70.3963 63.5075 70.9474 64.32 71.6634 64.8996C72.3906 65.4677 73.2599 65.7518 74.2713 65.7518C75.294 65.7518 76.1634 65.4677 76.8793 64.8996C77.5952 64.32 78.1349 63.5075 78.4986 62.4621C78.8736 61.4166 79.0611 60.1893 79.0611 58.7802C79.0611 57.3712 78.8736 56.1496 78.4986 55.1155C78.1349 54.0814 77.5952 53.2802 76.8793 52.7121C76.1747 52.1439 75.3054 51.8598 74.2713 51.8598C73.2486 51.8598 72.3793 52.1382 71.6634 52.695C70.9474 53.2518 70.3963 54.0473 70.0099 55.0814C69.6349 56.1155 69.4474 57.3484 69.4474 58.7802ZM91.9858 71.8712V45.6893H100.321V71.8712H91.9858ZM96.1619 42.6382C94.9915 42.6382 93.9858 42.2518 93.1449 41.4791C92.304 40.695 91.8835 39.7518 91.8835 38.6496C91.8835 37.5587 92.304 36.6268 93.1449 35.8541C93.9858 35.07 94.9915 34.678 96.1619 34.678C97.3438 34.678 98.3494 35.07 99.179 35.8541C100.02 36.6268 100.44 37.5587 100.44 38.6496C100.44 39.7518 100.02 40.695 99.179 41.4791C98.3494 42.2518 97.3438 42.6382 96.1619 42.6382ZM120.405 45.6893V51.8257H103.888V45.6893H120.405ZM107.348 39.4166H115.683V63.6382C115.683 64.1496 115.763 64.5643 115.922 64.8825C116.092 65.1893 116.337 65.4109 116.655 65.5473C116.973 65.6723 117.354 65.7348 117.797 65.7348C118.115 65.7348 118.45 65.7064 118.803 65.6496C119.166 65.5814 119.439 65.5246 119.621 65.4791L120.882 71.4962C120.484 71.6098 119.922 71.7518 119.195 71.9223C118.479 72.0927 117.621 72.2007 116.621 72.2462C114.666 72.3371 112.99 72.1098 111.592 71.5643C110.206 71.0075 109.143 70.1439 108.405 68.9734C107.678 67.803 107.325 66.3314 107.348 64.5587V39.4166ZM147.188 53.6837L139.534 53.8882C139.455 53.3427 139.239 52.8598 138.886 52.4393C138.534 52.0075 138.074 51.6723 137.506 51.4337C136.949 51.1837 136.301 51.0587 135.562 51.0587C134.597 51.0587 133.773 51.2518 133.091 51.6382C132.42 52.0246 132.091 52.5473 132.102 53.2064C132.091 53.7177 132.295 54.1609 132.716 54.5359C133.148 54.9109 133.915 55.2121 135.017 55.4393L140.062 56.3939C142.676 56.8939 144.619 57.7234 145.892 58.8825C147.176 60.0416 147.824 61.5757 147.835 63.4848C147.824 65.2802 147.29 66.8427 146.233 68.1723C145.188 69.5018 143.756 70.5359 141.938 71.2746C140.119 72.0018 138.04 72.3655 135.699 72.3655C131.96 72.3655 129.011 71.5984 126.852 70.0643C124.705 68.5189 123.477 66.4507 123.17 63.8598L131.403 63.6552C131.585 64.6098 132.057 65.3371 132.818 65.8371C133.58 66.3371 134.551 66.5871 135.733 66.5871C136.801 66.5871 137.67 66.3882 138.341 65.9905C139.011 65.5927 139.352 65.0643 139.364 64.4052C139.352 63.8143 139.091 63.3427 138.58 62.9905C138.068 62.6268 137.267 62.3427 136.176 62.1382L131.608 61.2689C128.983 60.7916 127.028 59.9109 125.744 58.6268C124.46 57.3314 123.824 55.6837 123.835 53.6837C123.824 51.9337 124.29 50.4393 125.233 49.2007C126.176 47.9507 127.517 46.9962 129.256 46.3371C130.994 45.678 133.045 45.3484 135.409 45.3484C138.955 45.3484 141.75 46.0927 143.795 47.5814C145.841 49.0587 146.972 51.0927 147.188 53.6837Z" fill="white"/>
<path d="M6.464 93.2888C5.33333 93.2888 4.34667 93.0542 3.504 92.5848C2.66133 92.1155 2.01067 91.4488 1.552 90.5848C1.09333 89.7102 0.864 88.6968 0.864 87.5448C0.864 86.3928 1.09333 85.3795 1.552 84.5048C2.01067 83.6302 2.66133 82.9582 3.504 82.4888C4.35733 82.0088 5.344 81.7688 6.464 81.7688C7.37067 81.7688 8.21333 81.9235 8.992 82.2328C9.78133 82.5422 10.384 82.9688 10.8 83.5128C10.896 83.6195 10.944 83.7475 10.944 83.8968C10.944 84.0675 10.8693 84.2008 10.72 84.2968C10.624 84.3608 10.5173 84.3928 10.4 84.3928C10.304 84.3928 10.208 84.3715 10.112 84.3288C10.016 84.2755 9.936 84.2115 9.872 84.1368C9.54133 83.7208 9.08267 83.3955 8.496 83.1608C7.90933 82.9155 7.232 82.7928 6.464 82.7928C5.568 82.7928 4.78933 82.9848 4.128 83.3688C3.46667 83.7528 2.96 84.3022 2.608 85.0168C2.256 85.7315 2.08 86.5742 2.08 87.5448C2.08 89.0168 2.46933 90.1742 3.248 91.0168C4.02667 91.8488 5.09867 92.2648 6.464 92.2648C7.17867 92.2648 7.81333 92.1528 8.368 91.9288C8.92267 91.6942 9.35467 91.3742 9.664 90.9688C9.984 90.5528 10.144 90.0835 10.144 89.5608V89.0168C10.144 88.7288 10.0853 88.5208 9.968 88.3928C9.86133 88.2648 9.65333 88.2008 9.344 88.2008H6.912C6.50667 88.2008 6.304 88.0408 6.304 87.7208C6.304 87.3795 6.50667 87.2088 6.912 87.2088H9.552C10.16 87.2088 10.6133 87.3422 10.912 87.6088C11.2107 87.8755 11.36 88.2862 11.36 88.8408V89.4488C11.36 90.1635 11.1467 90.8142 10.72 91.4008C10.2933 91.9875 9.70667 92.4515 8.96 92.7928C8.21333 93.1235 7.38133 93.2888 6.464 93.2888ZM15.5628 93.1288C14.9121 93.1288 14.4054 92.9582 14.0428 92.6168C13.6801 92.2755 13.4988 91.7955 13.4988 91.1768V83.8488C13.4988 83.2515 13.6748 82.7822 14.0268 82.4408C14.3894 82.0995 14.8908 81.9288 15.5308 81.9288H20.4908C20.9068 81.9288 21.1148 82.0995 21.1148 82.4408C21.1148 82.5902 21.0614 82.7075 20.9548 82.7928C20.8481 82.8782 20.6934 82.9208 20.4908 82.9208H15.5468C15.2908 82.9208 15.0828 83.0062 14.9228 83.1768C14.7734 83.3475 14.6988 83.5715 14.6988 83.8488V86.9048H19.2748C19.6908 86.9048 19.8988 87.0755 19.8988 87.4168C19.8988 87.5768 19.8401 87.6995 19.7228 87.7848C19.6161 87.8702 19.4668 87.9128 19.2748 87.9128H14.6988V91.2088C14.6988 91.4862 14.7734 91.7102 14.9228 91.8808C15.0828 92.0515 15.2908 92.1368 15.5468 92.1368H20.8428C21.2588 92.1368 21.4668 92.3022 21.4668 92.6328C21.4668 92.7928 21.4081 92.9155 21.2908 93.0008C21.1841 93.0862 21.0348 93.1288 20.8428 93.1288H15.5628ZM28.1838 93.2888C27.1598 93.2888 26.2158 93.1182 25.3518 92.7768C24.4984 92.4248 23.8318 91.9448 23.3518 91.3368C23.2664 91.2302 23.2238 91.1182 23.2238 91.0008C23.2238 90.8515 23.3038 90.7075 23.4638 90.5688C23.5491 90.5048 23.6398 90.4728 23.7358 90.4728C23.9278 90.4728 24.0984 90.5635 24.2478 90.7448C24.6851 91.2248 25.2344 91.5982 25.8958 91.8648C26.5678 92.1208 27.3304 92.2488 28.1838 92.2488C29.1224 92.2488 29.8478 92.0782 30.3598 91.7368C30.8718 91.3848 31.1278 90.8888 31.1278 90.2488C31.1278 89.6942 30.8771 89.2462 30.3758 88.9048C29.8851 88.5635 29.0478 88.2595 27.8638 87.9928C26.3171 87.6515 25.2024 87.2248 24.5198 86.7128C23.8478 86.1902 23.5118 85.5022 23.5118 84.6488C23.5118 83.7635 23.8851 83.0648 24.6318 82.5528C25.3891 82.0302 26.4078 81.7688 27.6878 81.7688C28.6584 81.7688 29.5331 81.9395 30.3118 82.2808C31.1011 82.6222 31.6611 83.0808 31.9918 83.6568C32.0558 83.7635 32.0878 83.8648 32.0878 83.9608C32.0878 84.1315 31.9971 84.2808 31.8158 84.4088C31.7411 84.4515 31.6558 84.4728 31.5598 84.4728C31.3251 84.4728 31.1438 84.3822 31.0158 84.2008C30.7064 83.7528 30.2691 83.4115 29.7038 83.1768C29.1384 82.9315 28.4664 82.8088 27.6878 82.8088C25.7144 82.8088 24.7278 83.4222 24.7278 84.6488C24.7278 85.0222 24.8291 85.3368 25.0318 85.5928C25.2344 85.8382 25.5598 86.0622 26.0078 86.2648C26.4664 86.4568 27.1011 86.6488 27.9118 86.8408C29.4904 87.2142 30.6264 87.6675 31.3198 88.2008C32.0131 88.7235 32.3598 89.4062 32.3598 90.2488C32.3598 91.1875 31.9811 91.9288 31.2238 92.4728C30.4771 93.0168 29.4638 93.2888 28.1838 93.2888ZM38.4121 93.2888C38.2201 93.2888 38.0708 93.2355 37.9641 93.1288C37.8681 93.0115 37.8201 92.8515 37.8201 92.6488V82.9208H34.1561C33.9641 82.9208 33.8095 82.8835 33.6921 82.8088C33.5855 82.7235 33.5321 82.6008 33.5321 82.4408C33.5321 82.0995 33.7401 81.9288 34.1561 81.9288H42.7001C43.1161 81.9288 43.3241 82.0995 43.3241 82.4408C43.3241 82.5902 43.2708 82.7075 43.1641 82.7928C43.0575 82.8782 42.9028 82.9208 42.7001 82.9208H39.0361V92.6488C39.0361 92.8515 38.9775 93.0115 38.8601 93.1288C38.7535 93.2355 38.6041 93.2888 38.4121 93.2888ZM44.9326 93.2888C44.7513 93.2888 44.6073 93.2355 44.5006 93.1288C44.394 93.0115 44.3406 92.8515 44.3406 92.6488V86.3928C44.3406 84.9422 44.746 83.8115 45.5566 83.0008C46.378 82.1795 47.514 81.7688 48.9646 81.7688C50.4046 81.7688 51.5353 82.1795 52.3566 83.0008C53.178 83.8222 53.5886 84.9528 53.5886 86.3928V92.6488C53.5886 92.8515 53.5353 93.0115 53.4286 93.1288C53.322 93.2355 53.1726 93.2888 52.9806 93.2888C52.7993 93.2888 52.65 93.2355 52.5326 93.1288C52.426 93.0115 52.3726 92.8515 52.3726 92.6488V89.0488H45.5406V92.6488C45.5406 92.8515 45.4873 93.0115 45.3806 93.1288C45.274 93.2355 45.1246 93.2888 44.9326 93.2888ZM52.3726 88.0568V86.3448C52.3726 85.2035 52.0793 84.3288 51.4926 83.7208C50.906 83.1022 50.0633 82.7928 48.9646 82.7928C47.8553 82.7928 47.0073 83.0968 46.4206 83.7048C45.834 84.3128 45.5406 85.1928 45.5406 86.3448V88.0568H52.3726ZM46.7566 80.2008C46.4473 80.2008 46.2926 80.0782 46.2926 79.8328C46.2926 79.7368 46.3033 79.6568 46.3246 79.5928C46.4206 79.2302 46.5966 78.9315 46.8526 78.6968C47.1193 78.4622 47.4446 78.3448 47.8286 78.3448C48.0846 78.3448 48.3086 78.3928 48.5006 78.4888C48.7033 78.5742 48.938 78.7022 49.2046 78.8728C49.386 79.0008 49.5353 79.0968 49.6526 79.1608C49.7806 79.2248 49.914 79.2568 50.0526 79.2568C50.4153 79.2568 50.6606 79.0328 50.7886 78.5848C50.8633 78.3608 50.9966 78.2488 51.1886 78.2488C51.338 78.2488 51.45 78.2862 51.5246 78.3608C51.61 78.4248 51.6526 78.5208 51.6526 78.6488L51.6206 78.8408C51.514 79.2248 51.3273 79.5342 51.0606 79.7688C50.794 79.9928 50.474 80.1048 50.1006 80.1048C49.8553 80.1048 49.642 80.0622 49.4606 79.9768C49.29 79.8915 49.082 79.7688 48.8366 79.6088C48.634 79.4702 48.4633 79.3688 48.3246 79.3048C48.186 79.2302 48.0366 79.1928 47.8766 79.1928C47.5353 79.1928 47.2953 79.4115 47.1566 79.8488C47.0713 80.0835 46.938 80.2008 46.7566 80.2008ZM61.1069 93.2888C60.0295 93.2888 59.0589 93.0542 58.1949 92.5848C57.3309 92.1048 56.6482 91.4275 56.1469 90.5528C55.6562 89.6782 55.4109 88.6702 55.4109 87.5288C55.4109 86.3768 55.6562 85.3688 56.1469 84.5048C56.6482 83.6302 57.3309 82.9582 58.1949 82.4888C59.0589 82.0088 60.0295 81.7688 61.1069 81.7688C62.1842 81.7688 63.1549 82.0088 64.0189 82.4888C64.8829 82.9582 65.5602 83.6302 66.0509 84.5048C66.5522 85.3688 66.8029 86.3768 66.8029 87.5288C66.8029 88.6702 66.5522 89.6782 66.0509 90.5528C65.5602 91.4275 64.8829 92.1048 64.0189 92.5848C63.1549 93.0542 62.1842 93.2888 61.1069 93.2888ZM61.1069 92.2648C61.9709 92.2648 62.7389 92.0782 63.4109 91.7048C64.0935 91.3315 64.6269 90.7928 65.0109 90.0888C65.4055 89.3742 65.6029 88.5208 65.6029 87.5288C65.6029 86.5262 65.4002 85.6675 64.9949 84.9528C64.6002 84.2382 64.0562 83.6995 63.3629 83.3368C62.6802 82.9742 61.9175 82.7928 61.0749 82.7928C60.2215 82.7928 59.4535 82.9795 58.7709 83.3528C58.0989 83.7262 57.5709 84.2702 57.1869 84.9848C56.8029 85.6995 56.6109 86.5475 56.6109 87.5288C56.6109 88.5208 56.8029 89.3742 57.1869 90.0888C57.5815 90.7928 58.1149 91.3315 58.7869 91.7048C59.4695 92.0782 60.2429 92.2648 61.1069 92.2648ZM75.2971 93.1288C74.6465 93.1288 74.1398 92.9582 73.7771 92.6168C73.4145 92.2648 73.2331 91.7848 73.2331 91.1768V83.8488C73.2331 83.2515 73.4091 82.7822 73.7611 82.4408C74.1238 82.0995 74.6251 81.9288 75.2651 81.9288H77.5051C78.6145 81.9288 79.5798 82.1635 80.4011 82.6328C81.2331 83.0915 81.8731 83.7422 82.3211 84.5848C82.7691 85.4275 82.9931 86.4142 82.9931 87.5448C82.9931 88.6755 82.7691 89.6622 82.3211 90.5048C81.8731 91.3368 81.2331 91.9822 80.4011 92.4408C79.5798 92.8995 78.6145 93.1288 77.5051 93.1288H75.2971ZM77.3451 92.1368C78.7531 92.1368 79.8411 91.7368 80.6091 90.9368C81.3878 90.1368 81.7771 89.0062 81.7771 87.5448C81.7771 86.0835 81.3878 84.9475 80.6091 84.1368C79.8305 83.3262 78.7425 82.9208 77.3451 82.9208H75.2811C75.0251 82.9208 74.8171 83.0062 74.6571 83.1768C74.5078 83.3475 74.4331 83.5715 74.4331 83.8488V91.2088C74.4331 91.4862 74.5078 91.7102 74.6571 91.8808C74.8171 92.0515 75.0251 92.1368 75.2811 92.1368H77.3451ZM87.2346 93.1288C86.584 93.1288 86.0773 92.9582 85.7146 92.6168C85.352 92.2755 85.1706 91.7955 85.1706 91.1768V83.8488C85.1706 83.2515 85.3466 82.7822 85.6986 82.4408C86.0613 82.0995 86.5626 81.9288 87.2026 81.9288H92.1626C92.5786 81.9288 92.7866 82.0995 92.7866 82.4408C92.7866 82.5902 92.7333 82.7075 92.6266 82.7928C92.52 82.8782 92.3653 82.9208 92.1626 82.9208H87.2186C86.9626 82.9208 86.7546 83.0062 86.5946 83.1768C86.4453 83.3475 86.3706 83.5715 86.3706 83.8488V86.9048H90.9466C91.3626 86.9048 91.5706 87.0755 91.5706 87.4168C91.5706 87.5768 91.512 87.6995 91.3946 87.7848C91.288 87.8702 91.1386 87.9128 90.9466 87.9128H86.3706V91.2088C86.3706 91.4862 86.4453 91.7102 86.5946 91.8808C86.7546 92.0515 86.9626 92.1368 87.2186 92.1368H92.5146C92.9306 92.1368 93.1386 92.3022 93.1386 92.6328C93.1386 92.7928 93.08 92.9155 92.9626 93.0008C92.856 93.0862 92.7066 93.1288 92.5146 93.1288H87.2346ZM100.153 93.2888C99.9715 93.2888 99.8275 93.2355 99.7209 93.1288C99.6142 93.0115 99.5609 92.8515 99.5609 92.6488V82.4088C99.5609 82.2062 99.6142 82.0515 99.7209 81.9448C99.8275 81.8275 99.9715 81.7688 100.153 81.7688C100.345 81.7688 100.494 81.8275 100.601 81.9448C100.708 82.0515 100.761 82.2062 100.761 82.4088V86.8728H107.785V82.4088C107.785 82.2062 107.838 82.0515 107.945 81.9448C108.052 81.8275 108.201 81.7688 108.393 81.7688C108.574 81.7688 108.718 81.8275 108.825 81.9448C108.932 82.0515 108.985 82.2062 108.985 82.4088V92.6488C108.985 92.8515 108.932 93.0115 108.825 93.1288C108.718 93.2355 108.574 93.2888 108.393 93.2888C108.212 93.2888 108.062 93.2355 107.945 93.1288C107.838 93.0115 107.785 92.8515 107.785 92.6488V87.8808H100.761V92.6488C100.761 92.8515 100.708 93.0115 100.601 93.1288C100.494 93.2355 100.345 93.2888 100.153 93.2888ZM112.042 93.2888C111.861 93.2888 111.717 93.2355 111.61 93.1288C111.503 93.0115 111.45 92.8515 111.45 92.6488V86.3928C111.45 84.9422 111.855 83.8115 112.666 83.0008C113.487 82.1795 114.623 81.7688 116.074 81.7688C117.514 81.7688 118.645 82.1795 119.466 83.0008C120.287 83.8222 120.698 84.9528 120.698 86.3928V92.6488C120.698 92.8515 120.645 93.0115 120.538 93.1288C120.431 93.2355 120.282 93.2888 120.09 93.2888C119.909 93.2888 119.759 93.2355 119.642 93.1288C119.535 93.0115 119.482 92.8515 119.482 92.6488V89.0488H112.65V92.6488C112.65 92.8515 112.597 93.0115 112.49 93.1288C112.383 93.2355 112.234 93.2888 112.042 93.2888ZM119.482 88.0568V86.3448C119.482 85.2035 119.189 84.3288 118.602 83.7208C118.015 83.1022 117.173 82.7928 116.074 82.7928C114.965 82.7928 114.117 83.0968 113.53 83.7048C112.943 84.3128 112.65 85.1928 112.65 86.3448V88.0568H119.482ZM115.914 80.5208C115.754 80.4462 115.674 80.3288 115.674 80.1688C115.674 80.0942 115.69 80.0248 115.722 79.9608L116.714 77.7048C116.842 77.4062 117.018 77.2568 117.242 77.2568C117.349 77.2568 117.45 77.2835 117.546 77.3368C117.759 77.4435 117.866 77.5875 117.866 77.7688C117.866 77.8648 117.834 77.9715 117.77 78.0888L116.522 80.2968C116.426 80.4782 116.287 80.5688 116.106 80.5688C116.042 80.5688 115.978 80.5528 115.914 80.5208ZM125.235 93.1288C124.584 93.1288 124.077 92.9582 123.715 92.6168C123.352 92.2648 123.171 91.7848 123.171 91.1768V83.8488C123.171 83.2515 123.347 82.7822 123.699 82.4408C124.061 82.0995 124.563 81.9288 125.203 81.9288H128.995C130.072 81.9288 130.909 82.1955 131.507 82.7288C132.104 83.2622 132.403 84.0142 132.403 84.9848C132.403 85.5395 132.259 86.0248 131.971 86.4408C131.683 86.8462 131.288 87.1555 130.787 87.3688V87.4008C131.352 87.6035 131.795 87.9235 132.115 88.3608C132.435 88.7875 132.595 89.2942 132.595 89.8808C132.595 90.8835 132.291 91.6782 131.683 92.2648C131.075 92.8408 130.243 93.1288 129.187 93.1288H125.235ZM129.123 86.9208C129.752 86.9208 130.253 86.7448 130.627 86.3928C131 86.0408 131.187 85.5715 131.187 84.9848C131.187 84.3128 131 83.8008 130.627 83.4488C130.253 83.0968 129.709 82.9208 128.995 82.9208H125.219C124.973 82.9208 124.771 83.0115 124.611 83.1928C124.451 83.3635 124.371 83.5822 124.371 83.8488V86.9208H129.123ZM129.123 92.1208C129.859 92.1208 130.419 91.9342 130.803 91.5608C131.187 91.1768 131.379 90.6222 131.379 89.8968C131.379 89.2675 131.176 88.7768 130.771 88.4248C130.365 88.0728 129.811 87.8968 129.107 87.8968H124.371V91.2088C124.371 91.4755 124.451 91.6942 124.611 91.8648C124.771 92.0355 124.973 92.1208 125.219 92.1208H129.123ZM135.837 93.2888C135.655 93.2888 135.511 93.2355 135.405 93.1288C135.298 93.0115 135.245 92.8515 135.245 92.6488V82.4088C135.245 82.2062 135.298 82.0515 135.405 81.9448C135.511 81.8275 135.655 81.7688 135.837 81.7688C136.029 81.7688 136.178 81.8275 136.285 81.9448C136.391 82.0622 136.445 82.2168 136.445 82.4088V92.6488C136.445 92.8408 136.391 92.9955 136.285 93.1128C136.178 93.2302 136.029 93.2888 135.837 93.2888ZM143.803 93.2888C143.611 93.2888 143.461 93.2355 143.355 93.1288C143.259 93.0115 143.211 92.8515 143.211 92.6488V82.9208H139.547C139.355 82.9208 139.2 82.8835 139.083 82.8088C138.976 82.7235 138.923 82.6008 138.923 82.4408C138.923 82.0995 139.131 81.9288 139.547 81.9288H148.091C148.507 81.9288 148.715 82.0995 148.715 82.4408C148.715 82.5902 148.661 82.7075 148.555 82.7928C148.448 82.8782 148.293 82.9208 148.091 82.9208H144.427V92.6488C144.427 92.8515 144.368 93.0115 144.251 93.1288C144.144 93.2355 143.995 93.2888 143.803 93.2888ZM154.919 93.2888C153.842 93.2888 152.871 93.0542 152.007 92.5848C151.143 92.1048 150.461 91.4275 149.959 90.5528C149.469 89.6782 149.223 88.6702 149.223 87.5288C149.223 86.3768 149.469 85.3688 149.959 84.5048C150.461 83.6302 151.143 82.9582 152.007 82.4888C152.871 82.0088 153.842 81.7688 154.919 81.7688C155.997 81.7688 156.967 82.0088 157.831 82.4888C158.695 82.9582 159.373 83.6302 159.863 84.5048C160.365 85.3688 160.615 86.3768 160.615 87.5288C160.615 88.6702 160.365 89.6782 159.863 90.5528C159.373 91.4275 158.695 92.1048 157.831 92.5848C156.967 93.0542 155.997 93.2888 154.919 93.2888ZM154.919 92.2648C155.783 92.2648 156.551 92.0782 157.223 91.7048C157.906 91.3315 158.439 90.7928 158.823 90.0888C159.218 89.3742 159.415 88.5208 159.415 87.5288C159.415 86.5262 159.213 85.6675 158.807 84.9528C158.413 84.2382 157.869 83.6995 157.175 83.3368C156.493 82.9742 155.73 82.7928 154.887 82.7928C154.034 82.7928 153.266 82.9795 152.583 83.3528C151.911 83.7262 151.383 84.2702 150.999 84.9848C150.615 85.6995 150.423 86.5475 150.423 87.5288C150.423 88.5208 150.615 89.3742 150.999 90.0888C151.394 90.7928 151.927 91.3315 152.599 91.7048C153.282 92.0782 154.055 92.2648 154.919 92.2648ZM167.324 93.2888C166.3 93.2888 165.356 93.1182 164.492 92.7768C163.639 92.4248 162.972 91.9448 162.492 91.3368C162.407 91.2302 162.364 91.1182 162.364 91.0008C162.364 90.8515 162.444 90.7075 162.604 90.5688C162.69 90.5048 162.78 90.4728 162.876 90.4728C163.068 90.4728 163.239 90.5635 163.388 90.7448C163.826 91.2248 164.375 91.5982 165.036 91.8648C165.708 92.1208 166.471 92.2488 167.324 92.2488C168.263 92.2488 168.988 92.0782 169.5 91.7368C170.012 91.3848 170.268 90.8888 170.268 90.2488C170.268 89.6942 170.018 89.2462 169.516 88.9048C169.026 88.5635 168.188 88.2595 167.004 87.9928C165.458 87.6515 164.343 87.2248 163.66 86.7128C162.988 86.1902 162.652 85.5022 162.652 84.6488C162.652 83.7635 163.026 83.0648 163.772 82.5528C164.53 82.0302 165.548 81.7688 166.828 81.7688C167.799 81.7688 168.674 81.9395 169.452 82.2808C170.242 82.6222 170.802 83.0808 171.132 83.6568C171.196 83.7635 171.228 83.8648 171.228 83.9608C171.228 84.1315 171.138 84.2808 170.956 84.4088C170.882 84.4515 170.796 84.4728 170.7 84.4728C170.466 84.4728 170.284 84.3822 170.156 84.2008C169.847 83.7528 169.41 83.4115 168.844 83.1768C168.279 82.9315 167.607 82.8088 166.828 82.8088C164.855 82.8088 163.868 83.4222 163.868 84.6488C163.868 85.0222 163.97 85.3368 164.172 85.5928C164.375 85.8382 164.7 86.0622 165.148 86.2648C165.607 86.4568 166.242 86.6488 167.052 86.8408C168.631 87.2142 169.767 87.6675 170.46 88.2008C171.154 88.7235 171.5 89.4062 171.5 90.2488C171.5 91.1875 171.122 91.9288 170.364 92.4728C169.618 93.0168 168.604 93.2888 167.324 93.2888Z" fill="#C084FC"/>
<rect x="0.5" y="1.37115" width="15" height="15" rx="3.5" fill="#18181B" stroke="#27272A"/>
<rect x="20.5" y="1.37115" width="15" height="15" rx="3.5" fill="#4C1D95" stroke="#6D28D9"/>
<rect x="40.5" y="1.37115" width="15" height="15" rx="3.5" fill="#5B21B6" stroke="#7C3AED"/>
<rect x="60.5" y="1.37115" width="15" height="15" rx="3.5" fill="#6D28D9" stroke="#8B5CF6"/>
<rect x="80.5" y="1.37115" width="15" height="15" rx="3.5" fill="#7C3AED" stroke="#A78BFA"/>
<rect x="100.5" y="1.37115" width="15" height="15" rx="3.5" fill="#8B5CF6" stroke="#C4B5FD"/>
</svg>
