<svg width="317" height="148" viewBox="0 0 317 148" fill="none" xmlns="http://www.w3.org/2000/svg">
<path d="M10.9773 56.9393V71.8712H2.64205V36.9621H10.7045V50.4962H10.9943C11.5852 48.8825 12.5511 47.6212 13.892 46.7121C15.2443 45.803 16.8977 45.3484 18.8523 45.3484C20.6932 45.3484 22.2955 45.7575 23.6591 46.5757C25.0227 47.3825 26.0795 48.5246 26.8295 50.0018C27.5909 51.4791 27.9659 53.2064 27.9545 55.1837V71.8712H19.6193V56.82C19.6307 55.3655 19.267 54.2291 18.5284 53.4109C17.7898 52.5927 16.75 52.1837 15.4091 52.1837C14.5341 52.1837 13.7614 52.3768 13.0909 52.7632C12.4318 53.1382 11.9148 53.678 11.5398 54.3825C11.1761 55.0871 10.9886 55.9393 10.9773 56.9393ZM40.5384 72.3143C38.8679 72.3143 37.3849 72.0359 36.0895 71.4791C34.8054 70.9109 33.7884 70.0587 33.0384 68.9223C32.2997 67.7746 31.9304 66.3371 31.9304 64.6098C31.9304 63.1552 32.1861 61.928 32.6974 60.928C33.2088 59.928 33.9134 59.1155 34.8111 58.4905C35.7088 57.8655 36.7429 57.3939 37.9134 57.0757C39.0838 56.7462 40.3338 56.5246 41.6634 56.4109C43.152 56.2746 44.3509 56.1325 45.2599 55.9848C46.169 55.8257 46.8281 55.6041 47.2372 55.32C47.6577 55.0246 47.8679 54.6098 47.8679 54.0757V53.9905C47.8679 53.1155 47.5668 52.4393 46.9645 51.9621C46.3622 51.4848 45.5497 51.2462 44.527 51.2462C43.4247 51.2462 42.5384 51.4848 41.8679 51.9621C41.1974 52.4393 40.7713 53.0984 40.5895 53.9393L32.902 53.6666C33.1293 52.0757 33.7145 50.6552 34.6577 49.4052C35.6122 48.1439 36.919 47.1552 38.5781 46.4393C40.2486 45.7121 42.2543 45.3484 44.5952 45.3484C46.2656 45.3484 47.8054 45.5473 49.2145 45.945C50.6236 46.3314 51.8509 46.8996 52.8963 47.6496C53.9418 48.3882 54.7486 49.2973 55.3168 50.3768C55.8963 51.4564 56.1861 52.6893 56.1861 54.0757V71.8712H48.3452V68.2234H48.1406C47.6747 69.1098 47.0781 69.8598 46.3509 70.4734C45.6349 71.0871 44.7884 71.5473 43.8111 71.8541C42.8452 72.1609 41.7543 72.3143 40.5384 72.3143ZM43.1122 66.8598C44.0099 66.8598 44.8168 66.678 45.5327 66.3143C46.2599 65.9507 46.8395 65.4507 47.2713 64.8143C47.7031 64.1666 47.919 63.4166 47.919 62.5643V60.0757C47.6804 60.2007 47.3906 60.3143 47.0497 60.4166C46.7202 60.5189 46.3565 60.6155 45.9588 60.7064C45.5611 60.7973 45.152 60.8768 44.7315 60.945C44.3111 61.0132 43.9077 61.0757 43.5213 61.1325C42.7372 61.2575 42.0668 61.4507 41.5099 61.7121C40.9645 61.9734 40.544 62.3143 40.2486 62.7348C39.9645 63.1439 39.8224 63.6325 39.8224 64.2007C39.8224 65.0643 40.1293 65.7234 40.7429 66.178C41.3679 66.6325 42.1577 66.8598 43.1122 66.8598ZM61.2827 71.8712V36.9621H69.6179V50.1723H69.7884C70.1293 49.3768 70.6122 48.6098 71.2372 47.8712C71.8736 47.1325 72.6804 46.5302 73.6577 46.0643C74.6463 45.5871 75.8281 45.3484 77.2031 45.3484C79.0213 45.3484 80.7202 45.8257 82.2997 46.7802C83.8906 47.7348 85.1747 49.2064 86.152 51.195C87.1293 53.1837 87.6179 55.7177 87.6179 58.7973C87.6179 61.7632 87.1463 64.2462 86.2031 66.2462C85.2713 68.2462 84.0099 69.7462 82.419 70.7462C80.8395 71.7462 79.0838 72.2462 77.152 72.2462C75.8338 72.2462 74.6918 72.0302 73.7259 71.5984C72.7599 71.1666 71.9474 70.5984 71.2884 69.8939C70.6406 69.1893 70.1406 68.4337 69.7884 67.6268H69.5327V71.8712H61.2827ZM69.4474 58.7802C69.4474 60.1893 69.6349 61.4166 70.0099 62.4621C70.3963 63.5075 70.9474 64.32 71.6634 64.8996C72.3906 65.4677 73.2599 65.7518 74.2713 65.7518C75.294 65.7518 76.1634 65.4677 76.8793 64.8996C77.5952 64.32 78.1349 63.5075 78.4986 62.4621C78.8736 61.4166 79.0611 60.1893 79.0611 58.7802C79.0611 57.3712 78.8736 56.1496 78.4986 55.1155C78.1349 54.0814 77.5952 53.2802 76.8793 52.7121C76.1747 52.1439 75.3054 51.8598 74.2713 51.8598C73.2486 51.8598 72.3793 52.1382 71.6634 52.695C70.9474 53.2518 70.3963 54.0473 70.0099 55.0814C69.6349 56.1155 69.4474 57.3484 69.4474 58.7802ZM91.9858 71.8712V45.6893H100.321V71.8712H91.9858ZM96.1619 42.6382C94.9915 42.6382 93.9858 42.2518 93.1449 41.4791C92.304 40.695 91.8835 39.7518 91.8835 38.6496C91.8835 37.5587 92.304 36.6268 93.1449 35.8541C93.9858 35.07 94.9915 34.678 96.1619 34.678C97.3438 34.678 98.3494 35.07 99.179 35.8541C100.02 36.6268 100.44 37.5587 100.44 38.6496C100.44 39.7518 100.02 40.695 99.179 41.4791C98.3494 42.2518 97.3438 42.6382 96.1619 42.6382ZM120.405 45.6893V51.8257H103.888V45.6893H120.405ZM107.348 39.4166H115.683V63.6382C115.683 64.1496 115.763 64.5643 115.922 64.8825C116.092 65.1893 116.337 65.4109 116.655 65.5473C116.973 65.6723 117.354 65.7348 117.797 65.7348C118.115 65.7348 118.45 65.7064 118.803 65.6496C119.166 65.5814 119.439 65.5246 119.621 65.4791L120.882 71.4962C120.484 71.6098 119.922 71.7518 119.195 71.9223C118.479 72.0927 117.621 72.2007 116.621 72.2462C114.666 72.3371 112.99 72.1098 111.592 71.5643C110.206 71.0075 109.143 70.1439 108.405 68.9734C107.678 67.803 107.325 66.3314 107.348 64.5587V39.4166ZM147.188 53.6837L139.534 53.8882C139.455 53.3427 139.239 52.8598 138.886 52.4393C138.534 52.0075 138.074 51.6723 137.506 51.4337C136.949 51.1837 136.301 51.0587 135.562 51.0587C134.597 51.0587 133.773 51.2518 133.091 51.6382C132.42 52.0246 132.091 52.5473 132.102 53.2064C132.091 53.7177 132.295 54.1609 132.716 54.5359C133.148 54.9109 133.915 55.2121 135.017 55.4393L140.062 56.3939C142.676 56.8939 144.619 57.7234 145.892 58.8825C147.176 60.0416 147.824 61.5757 147.835 63.4848C147.824 65.2802 147.29 66.8427 146.233 68.1723C145.188 69.5018 143.756 70.5359 141.938 71.2746C140.119 72.0018 138.04 72.3655 135.699 72.3655C131.96 72.3655 129.011 71.5984 126.852 70.0643C124.705 68.5189 123.477 66.4507 123.17 63.8598L131.403 63.6552C131.585 64.6098 132.057 65.3371 132.818 65.8371C133.58 66.3371 134.551 66.5871 135.733 66.5871C136.801 66.5871 137.67 66.3882 138.341 65.9905C139.011 65.5927 139.352 65.0643 139.364 64.4052C139.352 63.8143 139.091 63.3427 138.58 62.9905C138.068 62.6268 137.267 62.3427 136.176 62.1382L131.608 61.2689C128.983 60.7916 127.028 59.9109 125.744 58.6268C124.46 57.3314 123.824 55.6837 123.835 53.6837C123.824 51.9337 124.29 50.4393 125.233 49.2007C126.176 47.9507 127.517 46.9962 129.256 46.3371C130.994 45.678 133.045 45.3484 135.409 45.3484C138.955 45.3484 141.75 46.0927 143.795 47.5814C145.841 49.0587 146.972 51.0927 147.188 53.6837Z" fill="white"/>
<path d="M6.464 93.2888C5.33333 93.2888 4.34667 93.0542 3.504 92.5848C2.66133 92.1155 2.01067 91.4488 1.552 90.5848C1.09333 89.7102 0.864 88.6968 0.864 87.5448C0.864 86.3928 1.09333 85.3795 1.552 84.5048C2.01067 83.6302 2.66133 82.9582 3.504 82.4888C4.35733 82.0088 5.344 81.7688 6.464 81.7688C7.37067 81.7688 8.21333 81.9235 8.992 82.2328C9.78133 82.5422 10.384 82.9688 10.8 83.5128C10.896 83.6195 10.944 83.7475 10.944 83.8968C10.944 84.0675 10.8693 84.2008 10.72 84.2968C10.624 84.3608 10.5173 84.3928 10.4 84.3928C10.304 84.3928 10.208 84.3715 10.112 84.3288C10.016 84.2755 9.936 84.2115 9.872 84.1368C9.54133 83.7208 9.08267 83.3955 8.496 83.1608C7.90933 82.9155 7.232 82.7928 6.464 82.7928C5.568 82.7928 4.78933 82.9848 4.128 83.3688C3.46667 83.7528 2.96 84.3022 2.608 85.0168C2.256 85.7315 2.08 86.5742 2.08 87.5448C2.08 89.0168 2.46933 90.1742 3.248 91.0168C4.02667 91.8488 5.09867 92.2648 6.464 92.2648C7.17867 92.2648 7.81333 92.1528 8.368 91.9288C8.92267 91.6942 9.35467 91.3742 9.664 90.9688C9.984 90.5528 10.144 90.0835 10.144 89.5608V89.0168C10.144 88.7288 10.0853 88.5208 9.968 88.3928C9.86133 88.2648 9.65333 88.2008 9.344 88.2008H6.912C6.50667 88.2008 6.304 88.0408 6.304 87.7208C6.304 87.3795 6.50667 87.2088 6.912 87.2088H9.552C10.16 87.2088 10.6133 87.3422 10.912 87.6088C11.2107 87.8755 11.36 88.2862 11.36 88.8408V89.4488C11.36 90.1635 11.1467 90.8142 10.72 91.4008C10.2933 91.9875 9.70667 92.4515 8.96 92.7928C8.21333 93.1235 7.38133 93.2888 6.464 93.2888ZM15.5628 93.1288C14.9121 93.1288 14.4054 92.9582 14.0428 92.6168C13.6801 92.2755 13.4988 91.7955 13.4988 91.1768V83.8488C13.4988 83.2515 13.6748 82.7822 14.0268 82.4408C14.3894 82.0995 14.8908 81.9288 15.5308 81.9288H20.4908C20.9068 81.9288 21.1148 82.0995 21.1148 82.4408C21.1148 82.5902 21.0614 82.7075 20.9548 82.7928C20.8481 82.8782 20.6934 82.9208 20.4908 82.9208H15.5468C15.2908 82.9208 15.0828 83.0062 14.9228 83.1768C14.7734 83.3475 14.6988 83.5715 14.6988 83.8488V86.9048H19.2748C19.6908 86.9048 19.8988 87.0755 19.8988 87.4168C19.8988 87.5768 19.8401 87.6995 19.7228 87.7848C19.6161 87.8702 19.4668 87.9128 19.2748 87.9128H14.6988V91.2088C14.6988 91.4862 14.7734 91.7102 14.9228 91.8808C15.0828 92.0515 15.2908 92.1368 15.5468 92.1368H20.8428C21.2588 92.1368 21.4668 92.3022 21.4668 92.6328C21.4668 92.7928 21.4081 92.9155 21.2908 93.0008C21.1841 93.0862 21.0348 93.1288 20.8428 93.1288H15.5628ZM28.1838 93.2888C27.1598 93.2888 26.2158 93.1182 25.3518 92.7768C24.4984 92.4248 23.8318 91.9448 23.3518 91.3368C23.2664 91.2302 23.2238 91.1182 23.2238 91.0008C23.2238 90.8515 23.3038 90.7075 23.4638 90.5688C23.5491 90.5048 23.6398 90.4728 23.7358 90.4728C23.9278 90.4728 24.0984 90.5635 24.2478 90.7448C24.6851 91.2248 25.2344 91.5982 25.8958 91.8648C26.5678 92.1208 27.3304 92.2488 28.1838 92.2488C29.1224 92.2488 29.8478 92.0782 30.3598 91.7368C30.8718 91.3848 31.1278 90.8888 31.1278 90.2488C31.1278 89.6942 30.8771 89.2462 30.3758 88.9048C29.8851 88.5635 29.0478 88.2595 27.8638 87.9928C26.3171 87.6515 25.2024 87.2248 24.5198 86.7128C23.8478 86.1902 23.5118 85.5022 23.5118 84.6488C23.5118 83.7635 23.8851 83.0648 24.6318 82.5528C25.3891 82.0302 26.4078 81.7688 27.6878 81.7688C28.6584 81.7688 29.5331 81.9395 30.3118 82.2808C31.1011 82.6222 31.6611 83.0808 31.9918 83.6568C32.0558 83.7635 32.0878 83.8648 32.0878 83.9608C32.0878 84.1315 31.9971 84.2808 31.8158 84.4088C31.7411 84.4515 31.6558 84.4728 31.5598 84.4728C31.3251 84.4728 31.1438 84.3822 31.0158 84.2008C30.7064 83.7528 30.2691 83.4115 29.7038 83.1768C29.1384 82.9315 28.4664 82.8088 27.6878 82.8088C25.7144 82.8088 24.7278 83.4222 24.7278 84.6488C24.7278 85.0222 24.8291 85.3368 25.0318 85.5928C25.2344 85.8382 25.5598 86.0622 26.0078 86.2648C26.4664 86.4568 27.1011 86.6488 27.9118 86.8408C29.4904 87.2142 30.6264 87.6675 31.3198 88.2008C32.0131 88.7235 32.3598 89.4062 32.3598 90.2488C32.3598 91.1875 31.9811 91.9288 31.2238 92.4728C30.4771 93.0168 29.4638 93.2888 28.1838 93.2888ZM38.4121 93.2888C38.2201 93.2888 38.0708 93.2355 37.9641 93.1288C37.8681 93.0115 37.8201 92.8515 37.8201 92.6488V82.9208H34.1561C33.9641 82.9208 33.8095 82.8835 33.6921 82.8088C33.5855 82.7235 33.5321 82.6008 33.5321 82.4408C33.5321 82.0995 33.7401 81.9288 34.1561 81.9288H42.7001C43.1161 81.9288 43.3241 82.0995 43.3241 82.4408C43.3241 82.5902 43.2708 82.7075 43.1641 82.7928C43.0575 82.8782 42.9028 82.9208 42.7001 82.9208H39.0361V92.6488C39.0361 92.8515 38.9775 93.0115 38.8601 93.1288C38.7535 93.2355 38.6041 93.2888 38.4121 93.2888ZM49.5288 93.2888C48.4514 93.2888 47.4808 93.0542 46.6168 92.5848C45.7528 92.1048 45.0701 91.4275 44.5688 90.5528C44.0781 89.6782 43.8328 88.6702 43.8328 87.5288C43.8328 86.3768 44.0781 85.3688 44.5688 84.5048C45.0701 83.6302 45.7528 82.9582 46.6168 82.4888C47.4808 82.0088 48.4514 81.7688 49.5288 81.7688C50.6061 81.7688 51.5768 82.0088 52.4408 82.4888C53.3048 82.9582 53.9821 83.6302 54.4728 84.5048C54.9741 85.3688 55.2248 86.3768 55.2248 87.5288C55.2248 88.6702 54.9741 89.6782 54.4728 90.5528C53.9821 91.4275 53.3048 92.1048 52.4408 92.5848C51.5768 93.0542 50.6061 93.2888 49.5288 93.2888ZM49.5288 92.2648C50.3928 92.2648 51.1608 92.0782 51.8328 91.7048C52.5154 91.3315 53.0488 90.7928 53.4328 90.0888C53.8274 89.3742 54.0248 88.5208 54.0248 87.5288C54.0248 86.5262 53.8221 85.6675 53.4168 84.9528C53.0221 84.2382 52.4781 83.6995 51.7847 83.3368C51.1021 82.9742 50.3394 82.7928 49.4968 82.7928C48.6434 82.7928 47.8754 82.9795 47.1927 83.3528C46.5208 83.7262 45.9928 84.2702 45.6088 84.9848C45.2248 85.6995 45.0328 86.5475 45.0328 87.5288C45.0328 88.5208 45.2248 89.3742 45.6088 90.0888C46.0034 90.7928 46.5368 91.3315 47.2088 91.7048C47.8914 92.0782 48.6648 92.2648 49.5288 92.2648ZM57.3098 83.9288C57.3098 83.3208 57.4858 82.8355 57.8378 82.4728C58.2004 82.1102 58.7231 81.9288 59.4058 81.9288H62.3978C65.2991 81.9288 66.7498 83.1342 66.7498 85.5448C66.7498 86.7075 66.3978 87.5875 65.6938 88.1848C64.9898 88.7822 63.9284 89.0808 62.5098 89.0808L65.6138 92.2968C65.7098 92.3928 65.7578 92.5155 65.7578 92.6648C65.7578 92.8568 65.6778 93.0115 65.5178 93.1288C65.3898 93.2248 65.2564 93.2728 65.1178 93.2728C64.9044 93.2728 64.7018 93.1662 64.5098 92.9528L60.8298 89.0808H58.6698V92.6008C58.6698 92.8142 58.6058 92.9848 58.4778 93.1128C58.3604 93.2302 58.1951 93.2888 57.9818 93.2888C57.7684 93.2888 57.6031 93.2302 57.4858 93.1128C57.3684 92.9848 57.3098 92.8142 57.3098 92.6008V83.9288ZM62.4778 87.9768C63.4591 87.9768 64.1844 87.7955 64.6538 87.4328C65.1338 87.0595 65.3738 86.4302 65.3738 85.5448C65.3738 84.6488 65.1338 84.0088 64.6538 83.6248C64.1738 83.2302 63.4484 83.0328 62.4778 83.0328H59.4858C59.2404 83.0328 59.0431 83.1128 58.8938 83.2728C58.7444 83.4328 58.6698 83.6515 58.6698 83.9288V87.9768H62.4778ZM75.1878 93.1288C74.5371 93.1288 74.0304 92.9582 73.6678 92.6168C73.3051 92.2648 73.1238 91.7848 73.1238 91.1768V83.8488C73.1238 83.2515 73.2998 82.7822 73.6518 82.4408C74.0144 82.0995 74.5158 81.9288 75.1558 81.9288H77.3958C78.5051 81.9288 79.4704 82.1635 80.2917 82.6328C81.1238 83.0915 81.7638 83.7422 82.2118 84.5848C82.6598 85.4275 82.8838 86.4142 82.8838 87.5448C82.8838 88.6755 82.6598 89.6622 82.2118 90.5048C81.7638 91.3368 81.1238 91.9822 80.2917 92.4408C79.4704 92.8995 78.5051 93.1288 77.3958 93.1288H75.1878ZM77.2358 92.1368C78.6438 92.1368 79.7318 91.7368 80.4998 90.9368C81.2784 90.1368 81.6678 89.0062 81.6678 87.5448C81.6678 86.0835 81.2784 84.9475 80.4998 84.1368C79.7211 83.3262 78.6331 82.9208 77.2358 82.9208H75.1718C74.9158 82.9208 74.7078 83.0062 74.5478 83.1768C74.3984 83.3475 74.3238 83.5715 74.3238 83.8488V91.2088C74.3238 91.4862 74.3984 91.7102 74.5478 91.8808C74.7078 92.0515 74.9158 92.1368 75.1718 92.1368H77.2358ZM87.1253 93.1288C86.4746 93.1288 85.9679 92.9582 85.6053 92.6168C85.2426 92.2755 85.0613 91.7955 85.0613 91.1768V83.8488C85.0613 83.2515 85.2373 82.7822 85.5893 82.4408C85.9519 82.0995 86.4533 81.9288 87.0933 81.9288H92.0533C92.4693 81.9288 92.6773 82.0995 92.6773 82.4408C92.6773 82.5902 92.6239 82.7075 92.5173 82.7928C92.4106 82.8782 92.2559 82.9208 92.0533 82.9208H87.1093C86.8533 82.9208 86.6453 83.0062 86.4853 83.1768C86.3359 83.3475 86.2613 83.5715 86.2613 83.8488V86.9048H90.8373C91.2533 86.9048 91.4613 87.0755 91.4613 87.4168C91.4613 87.5768 91.4026 87.6995 91.2853 87.7848C91.1786 87.8702 91.0293 87.9128 90.8373 87.9128H86.2613V91.2088C86.2613 91.4862 86.3359 91.7102 86.4853 91.8808C86.6453 92.0515 86.8533 92.1368 87.1093 92.1368H92.4053C92.8213 92.1368 93.0293 92.3022 93.0293 92.6328C93.0293 92.7928 92.9706 92.9155 92.8533 93.0008C92.7466 93.0862 92.5973 93.1288 92.4053 93.1288H87.1253ZM100.044 93.2888C99.8622 93.2888 99.7182 93.2355 99.6115 93.1288C99.5048 93.0115 99.4515 92.8515 99.4515 92.6488V82.4088C99.4515 82.2062 99.5048 82.0515 99.6115 81.9448C99.7182 81.8275 99.8622 81.7688 100.044 81.7688C100.236 81.7688 100.385 81.8275 100.492 81.9448C100.598 82.0515 100.652 82.2062 100.652 82.4088V86.8728H107.676V82.4088C107.676 82.2062 107.729 82.0515 107.836 81.9448C107.942 81.8275 108.092 81.7688 108.284 81.7688C108.465 81.7688 108.609 81.8275 108.716 81.9448C108.822 82.0515 108.876 82.2062 108.876 82.4088V92.6488C108.876 92.8515 108.822 93.0115 108.716 93.1288C108.609 93.2355 108.465 93.2888 108.284 93.2888C108.102 93.2888 107.953 93.2355 107.836 93.1288C107.729 93.0115 107.676 92.8515 107.676 92.6488V87.8808H100.652V92.6488C100.652 92.8515 100.598 93.0115 100.492 93.1288C100.385 93.2355 100.236 93.2888 100.044 93.2888ZM111.933 93.2888C111.751 93.2888 111.607 93.2355 111.501 93.1288C111.394 93.0115 111.341 92.8515 111.341 92.6488V86.3928C111.341 84.9422 111.746 83.8115 112.557 83.0008C113.378 82.1795 114.514 81.7688 115.965 81.7688C117.405 81.7688 118.535 82.1795 119.357 83.0008C120.178 83.8222 120.589 84.9528 120.589 86.3928V92.6488C120.589 92.8515 120.535 93.0115 120.429 93.1288C120.322 93.2355 120.173 93.2888 119.981 93.2888C119.799 93.2888 119.65 93.2355 119.533 93.1288C119.426 93.0115 119.373 92.8515 119.373 92.6488V89.0488H112.541V92.6488C112.541 92.8515 112.487 93.0115 112.381 93.1288C112.274 93.2355 112.125 93.2888 111.933 93.2888ZM119.373 88.0568V86.3448C119.373 85.2035 119.079 84.3288 118.493 83.7208C117.906 83.1022 117.063 82.7928 115.965 82.7928C114.855 82.7928 114.007 83.0968 113.421 83.7048C112.834 84.3128 112.541 85.1928 112.541 86.3448V88.0568H119.373ZM115.805 80.5208C115.645 80.4462 115.565 80.3288 115.565 80.1688C115.565 80.0942 115.581 80.0248 115.613 79.9608L116.605 77.7048C116.733 77.4062 116.909 77.2568 117.133 77.2568C117.239 77.2568 117.341 77.2835 117.437 77.3368C117.65 77.4435 117.757 77.5875 117.757 77.7688C117.757 77.8648 117.725 77.9715 117.661 78.0888L116.413 80.2968C116.317 80.4782 116.178 80.5688 115.997 80.5688C115.933 80.5688 115.869 80.5528 115.805 80.5208ZM125.125 93.1288C124.475 93.1288 123.968 92.9582 123.605 92.6168C123.243 92.2648 123.061 91.7848 123.061 91.1768V83.8488C123.061 83.2515 123.237 82.7822 123.589 82.4408C123.952 82.0995 124.453 81.9288 125.093 81.9288H128.885C129.963 81.9288 130.8 82.1955 131.397 82.7288C131.995 83.2622 132.293 84.0142 132.293 84.9848C132.293 85.5395 132.149 86.0248 131.861 86.4408C131.573 86.8462 131.179 87.1555 130.677 87.3688V87.4008C131.243 87.6035 131.685 87.9235 132.005 88.3608C132.325 88.7875 132.485 89.2942 132.485 89.8808C132.485 90.8835 132.181 91.6782 131.573 92.2648C130.965 92.8408 130.133 93.1288 129.077 93.1288H125.125ZM129.013 86.9208C129.643 86.9208 130.144 86.7448 130.517 86.3928C130.891 86.0408 131.077 85.5715 131.077 84.9848C131.077 84.3128 130.891 83.8008 130.517 83.4488C130.144 83.0968 129.6 82.9208 128.885 82.9208H125.109C124.864 82.9208 124.661 83.0115 124.501 83.1928C124.341 83.3635 124.261 83.5822 124.261 83.8488V86.9208H129.013ZM129.013 92.1208C129.749 92.1208 130.309 91.9342 130.693 91.5608C131.077 91.1768 131.269 90.6222 131.269 89.8968C131.269 89.2675 131.067 88.7768 130.661 88.4248C130.256 88.0728 129.701 87.8968 128.997 87.8968H124.261V91.2088C124.261 91.4755 124.341 91.6942 124.501 91.8648C124.661 92.0355 124.864 92.1208 125.109 92.1208H129.013ZM135.727 93.2888C135.546 93.2888 135.402 93.2355 135.295 93.1288C135.189 93.0115 135.135 92.8515 135.135 92.6488V82.4088C135.135 82.2062 135.189 82.0515 135.295 81.9448C135.402 81.8275 135.546 81.7688 135.727 81.7688C135.919 81.7688 136.069 81.8275 136.175 81.9448C136.282 82.0622 136.335 82.2168 136.335 82.4088V92.6488C136.335 92.8408 136.282 92.9955 136.175 93.1128C136.069 93.2302 135.919 93.2888 135.727 93.2888ZM143.693 93.2888C143.501 93.2888 143.352 93.2355 143.245 93.1288C143.149 93.0115 143.101 92.8515 143.101 92.6488V82.9208H139.437C139.245 82.9208 139.091 82.8835 138.973 82.8088C138.867 82.7235 138.813 82.6008 138.813 82.4408C138.813 82.0995 139.021 81.9288 139.437 81.9288H147.981C148.397 81.9288 148.605 82.0995 148.605 82.4408C148.605 82.5902 148.552 82.7075 148.445 82.7928C148.339 82.8782 148.184 82.9208 147.981 82.9208H144.317V92.6488C144.317 92.8515 144.259 93.0115 144.141 93.1288C144.035 93.2355 143.885 93.2888 143.693 93.2888ZM154.81 93.2888C153.733 93.2888 152.762 93.0542 151.898 92.5848C151.034 92.1048 150.351 91.4275 149.85 90.5528C149.359 89.6782 149.114 88.6702 149.114 87.5288C149.114 86.3768 149.359 85.3688 149.85 84.5048C150.351 83.6302 151.034 82.9582 151.898 82.4888C152.762 82.0088 153.733 81.7688 154.81 81.7688C155.887 81.7688 156.858 82.0088 157.722 82.4888C158.586 82.9582 159.263 83.6302 159.754 84.5048C160.255 85.3688 160.506 86.3768 160.506 87.5288C160.506 88.6702 160.255 89.6782 159.754 90.5528C159.263 91.4275 158.586 92.1048 157.722 92.5848C156.858 93.0542 155.887 93.2888 154.81 93.2888ZM154.81 92.2648C155.674 92.2648 156.442 92.0782 157.114 91.7048C157.797 91.3315 158.33 90.7928 158.714 90.0888C159.109 89.3742 159.306 88.5208 159.306 87.5288C159.306 86.5262 159.103 85.6675 158.698 84.9528C158.303 84.2382 157.759 83.6995 157.066 83.3368C156.383 82.9742 155.621 82.7928 154.778 82.7928C153.925 82.7928 153.157 82.9795 152.474 83.3528C151.802 83.7262 151.274 84.2702 150.89 84.9848C150.506 85.6995 150.314 86.5475 150.314 87.5288C150.314 88.5208 150.506 89.3742 150.89 90.0888C151.285 90.7928 151.818 91.3315 152.49 91.7048C153.173 92.0782 153.946 92.2648 154.81 92.2648ZM167.215 93.2888C166.191 93.2888 165.247 93.1182 164.383 92.7768C163.53 92.4248 162.863 91.9448 162.383 91.3368C162.298 91.2302 162.255 91.1182 162.255 91.0008C162.255 90.8515 162.335 90.7075 162.495 90.5688C162.58 90.5048 162.671 90.4728 162.767 90.4728C162.959 90.4728 163.13 90.5635 163.279 90.7448C163.716 91.2248 164.266 91.5982 164.927 91.8648C165.599 92.1208 166.362 92.2488 167.215 92.2488C168.154 92.2488 168.879 92.0782 169.391 91.7368C169.903 91.3848 170.159 90.8888 170.159 90.2488C170.159 89.6942 169.908 89.2462 169.407 88.9048C168.916 88.5635 168.079 88.2595 166.895 87.9928C165.348 87.6515 164.234 87.2248 163.551 86.7128C162.879 86.1902 162.543 85.5022 162.543 84.6488C162.543 83.7635 162.916 83.0648 163.663 82.5528C164.42 82.0302 165.439 81.7688 166.719 81.7688C167.69 81.7688 168.564 81.9395 169.343 82.2808C170.132 82.6222 170.692 83.0808 171.023 83.6568C171.087 83.7635 171.119 83.8648 171.119 83.9608C171.119 84.1315 171.028 84.2808 170.847 84.4088C170.772 84.4515 170.687 84.4728 170.591 84.4728C170.356 84.4728 170.175 84.3822 170.047 84.2008C169.738 83.7528 169.3 83.4115 168.735 83.1768C168.17 82.9315 167.498 82.8088 166.719 82.8088C164.746 82.8088 163.759 83.4222 163.759 84.6488C163.759 85.0222 163.86 85.3368 164.063 85.5928C164.266 85.8382 164.591 86.0622 165.039 86.2648C165.498 86.4568 166.132 86.6488 166.943 86.8408C168.522 87.2142 169.658 87.6675 170.351 88.2008C171.044 88.7235 171.391 89.4062 171.391 90.2488C171.391 91.1875 171.012 91.9288 170.255 92.4728C169.508 93.0168 168.495 93.2888 167.215 93.2888Z" fill="#C084FC"/>
<rect x="0.5" y="1.37115" width="15" height="15" rx="3.5" fill="#18181B" stroke="#27272A"/>
<rect x="20.5" y="1.37115" width="15" height="15" rx="3.5" fill="#4C1D95" stroke="#6D28D9"/>
<rect x="40.5" y="1.37115" width="15" height="15" rx="3.5" fill="#5B21B6" stroke="#7C3AED"/>
<rect x="60.5" y="1.37115" width="15" height="15" rx="3.5" fill="#6D28D9" stroke="#8B5CF6"/>
<rect x="80.5" y="1.37115" width="15" height="15" rx="3.5" fill="#7C3AED" stroke="#A78BFA"/>
<rect x="100.5" y="1.37115" width="15" height="15" rx="3.5" fill="#8B5CF6" stroke="#C4B5FD"/>
</svg>
